<svg xmlns="http://www.w3.org/2000/svg" xmlns:xlink="http://www.w3.org/1999/xlink" xmlns:lucid="lucid" width="1480" height="640"><g transform="translate(40 -60)" lucid:page-tab-id="0_0"><path d="M-1696 0h3456v1360h-3456z" fill="#fff"/><path d="M660 86c0-3.3 2.7-6 6-6h248c3.3 0 6 2.7 6 6v528c0 3.3-2.7 6-6 6H666c-3.3 0-6-2.7-6-6z" stroke="#5e5e5e" stroke-width="3" fill="#fff"/><path d="M480 86c0-3.3 2.7-6 6-6h148c3.3 0 6 2.7 6 6v528c0 3.3-2.7 6-6 6H486c-3.3 0-6-2.7-6-6z" fill="none"/><path d="M640 620c-5.52 0-10-4.48-10-10V360c0-5.52-4.48-10-10-10 5.52 0 10-4.48 10-10V90c0-5.52 4.48-10 10-10" stroke="#5e5e5e" stroke-width="3" fill="none"/><use xlink:href="#a" transform="matrix(1,0,0,1,485,85.00000000000028) translate(17.71604938271605 269.44444444444446)"/><use xlink:href="#b" transform="matrix(1,0,0,1,485,85.00000000000028) translate(105.18518518518519 269.44444444444446)"/><path d="M180 86c0-3.3 2.7-6 6-6h248c3.3 0 6 2.7 6 6v528c0 3.3-2.7 6-6 6H186c-3.3 0-6-2.7-6-6z" stroke="#5e5e5e" stroke-width="3" fill="#fff"/><path d="M-20 86c0-3.3 2.7-6 6-6h168c3.3 0 6 2.7 6 6v528c0 3.3-2.7 6-6 6H-14c-3.3 0-6-2.7-6-6z" fill="none"/><path d="M160 620c-5.52 0-10-4.48-10-10V360c0-5.52-4.48-10-10-10 5.52 0 10-4.48 10-10V90c0-5.52 4.48-10 10-10" stroke="#5e5e5e" stroke-width="3" fill="none"/><use xlink:href="#a" transform="matrix(1,0,0,1,-15,85.00000000000006) translate(37.71604938271605 269.44444444444446)"/><use xlink:href="#c" transform="matrix(1,0,0,1,-15,85.00000000000006) translate(125.18518518518519 269.44444444444446)"/><path d="M1160 86c0-3.3 2.7-6 6-6h248c3.3 0 6 2.7 6 6v528c0 3.3-2.7 6-6 6h-248c-3.3 0-6-2.7-6-6z" stroke="#5e5e5e" stroke-width="3" fill="#fff"/><path d="M960 86c0-3.3 2.7-6 6-6h168c3.3 0 6 2.7 6 6v528c0 3.3-2.7 6-6 6H966c-3.3 0-6-2.7-6-6z" fill="none"/><path d="M1140 620c-5.52 0-10-4.48-10-10V360c0-5.52-4.48-10-10-10 5.52 0 10-4.48 10-10V90c0-5.52 4.48-10 10-10" stroke="#5e5e5e" stroke-width="3" fill="none"/><use xlink:href="#a" transform="matrix(1,0,0,1,965,85.00000000000006) translate(36.5432098765432 269.44444444444446)"/><use xlink:href="#d" transform="matrix(1,0,0,1,965,85.00000000000006) translate(124.01234567901234 269.44444444444446)"/><path d="M203 90h110v40H203zM313 90h110v40H313zM203 130h110v40H203zM313 130h110v40H313zM203 170h110v40H203zM313 170h110v40H313zM203 210h110v40H203zM313 210h110v40H313zM203 250h110v40H203zM313 250h110v40H313zM203 290h110v40H203zM313 290h110v40H313zM203 330h110v40H203zM313 330h110v40H313zM203 370h110v40H203zM313 370h110v40H313zM203 410h110v40H203zM313 410h110v40H313zM203 450h110v40H203zM313 450h110v40H313zM203 490h110v40H203zM313 490h110v40H313zM203 530h110v40H203zM313 530h110v40H313zM203 570h110v40H203zM313 570h110v40H313z" fill-opacity="0"/><path d="M203 90v40M313 90v40M423 90v40M203 130v40M313 130v40M423 130v40M203 170v40M313 170v40M423 170v40M203 210v40M313 210v40M423 210v40M203 250v40M313 250v40M423 250v40M203 290v40M313 290v40M423 290v40M203 330v40M313 330v40M423 330v40M203 370v40M313 370v40M423 370v40M203 410v40M313 410v40M423 410v40M203 450v40M313 450v40M423 450v40M203 490v40M313 490v40M423 490v40M203 530v40M313 530v40M423 530v40M203 570v40M313 570v40M423 570v40M203 90h110M313 90h110M203 130h110M313 130h110M203 170h110M313 170h110M203 210h110M313 210h110M203 250h110M313 250h110M203 290h110M313 290h110M203 330h110M313 330h110M203 370h110M313 370h110M203 410h110M313 410h110M203 450h110M313 450h110M203 490h110M313 490h110M203 530h110M313 530h110M203 570h110M203 610h110M313 570h110M313 610h110" stroke="#000" fill="none"/><use xlink:href="#e" transform="matrix(1,0,0,1,208,95) translate(0 19.444444444444443)"/><use xlink:href="#f" transform="matrix(1,0,0,1,318,95) translate(0 19.444444444444443)"/><use xlink:href="#g" transform="matrix(1,0,0,1,208,135) translate(0 19.444444444444443)"/><use xlink:href="#h" transform="matrix(1,0,0,1,318,135) translate(0 19.444444444444443)"/><use xlink:href="#g" transform="matrix(1,0,0,1,208,175) translate(0 19.444444444444443)"/><use xlink:href="#i" transform="matrix(1,0,0,1,318,175) translate(0 19.444444444444443)"/><use xlink:href="#j" transform="matrix(1,0,0,1,208,215) translate(0 18.91112)"/><use xlink:href="#k" transform="matrix(1,0,0,1,318,215) translate(0 18.91112)"/><use xlink:href="#j" transform="matrix(1,0,0,1,208,255) translate(0 18.91112)"/><use xlink:href="#l" transform="matrix(1,0,0,1,318,255) translate(0 18.91112)"/><use xlink:href="#j" transform="matrix(1,0,0,1,208,295) translate(0 18.91112)"/><use xlink:href="#m" transform="matrix(1,0,0,1,318,295) translate(0 18.91112)"/><use xlink:href="#j" transform="matrix(1,0,0,1,208,335) translate(0 18.91112)"/><use xlink:href="#n" transform="matrix(1,0,0,1,318,335) translate(0 18.91112)"/><use xlink:href="#j" transform="matrix(1,0,0,1,208,375) translate(0 18.91112)"/><use xlink:href="#o" transform="matrix(1,0,0,1,318,375) translate(0 18.91112)"/><use xlink:href="#j" transform="matrix(1,0,0,1,208,415) translate(0 18.91112)"/><use xlink:href="#p" transform="matrix(1,0,0,1,318,415) translate(0 18.91112)"/><use xlink:href="#j" transform="matrix(1,0,0,1,208,455) translate(0 18.91112)"/><use xlink:href="#q" transform="matrix(1,0,0,1,318,455) translate(0 18.91112)"/><use xlink:href="#j" transform="matrix(1,0,0,1,208,495) translate(0 18.91112)"/><use xlink:href="#r" transform="matrix(1,0,0,1,318,495) translate(0 18.91112)"/><use xlink:href="#j" transform="matrix(1,0,0,1,208,535) translate(0 18.91112)"/><use xlink:href="#s" transform="matrix(1,0,0,1,318,535) translate(0 18.91112)"/><use xlink:href="#j" transform="matrix(1,0,0,1,208,575) translate(0 18.91112)"/><use xlink:href="#t" transform="matrix(1,0,0,1,318,575) translate(0 18.91112)"/><path d="M680 90h111.5v40H680zM791.5 90H903v40H791.5zM680 130h111.5v40H680zM791.5 130H903v40H791.5zM680 170h111.5v40H680zM791.5 170H903v40H791.5zM680 210h111.5v40H680zM791.5 210H903v40H791.5zM680 250h111.5v40H680zM791.5 250H903v40H791.5zM680 290h111.5v40H680zM791.5 290H903v40H791.5zM680 330h111.5v40H680zM791.5 330H903v40H791.5zM680 370h111.5v40H680zM791.5 370H903v40H791.5zM680 410h111.5v40H680zM791.5 410H903v40H791.5zM680 450h111.5v40H680zM791.5 450H903v40H791.5zM680 490h111.5v40H680zM791.5 490H903v40H791.5zM680 530h111.5v40H680zM791.5 530H903v40H791.5zM680 570h111.5v40H680zM791.5 570H903v40H791.5z" fill-opacity="0"/><path d="M680 90v40M791.5 90v40M903 90v40M680 130v40M791.5 130v40M903 130v40M680 170v40M791.5 170v40M903 170v40M680 210v40M791.5 210v40M903 210v40M680 250v40M791.5 250v40M903 250v40M680 290v40M791.5 290v40M903 290v40M680 330v40M791.5 330v40M903 330v40M680 370v40M791.5 370v40M903 370v40M680 410v40M791.5 410v40M903 410v40M680 450v40M791.5 450v40M903 450v40M680 490v40M791.5 490v40M903 490v40M680 530v40M791.5 530v40M903 530v40M680 570v40M791.5 570v40M903 570v40M680 90h111.5M791.5 90H903M680 130h111.5M791.5 130H903M680 170h111.5M791.5 170H903M680 210h111.5M791.5 210H903M680 250h111.5M791.5 250H903M680 290h111.5M791.5 290H903M680 330h111.5M791.5 330H903M680 370h111.5M791.5 370H903M680 410h111.5M791.5 410H903M680 450h111.5M791.5 450H903M680 490h111.5M791.5 490H903M680 530h111.5M791.5 530H903M680 570h111.5M680 610h111.5M791.5 570H903M791.5 610H903" stroke="#000" fill="none"/><use xlink:href="#e" transform="matrix(1,0,0,1,685,95.00000000000045) translate(0 19.444444444444443)"/><use xlink:href="#f" transform="matrix(1,0,0,1,796.5,95.00000000000045) translate(0 19.444444444444443)"/><use xlink:href="#u" transform="matrix(1,0,0,1,685,135.00000000000045) translate(0 19.444444444444443)"/><use xlink:href="#v" transform="matrix(1,0,0,1,796.5,135.00000000000045) translate(0 19.444444444444443)"/><use xlink:href="#u" transform="matrix(1,0,0,1,685,175.00000000000045) translate(0 19.444444444444443)"/><use xlink:href="#w" transform="matrix(1,0,0,1,796.5,175.00000000000045) translate(0 19.444444444444443)"/><use xlink:href="#x" transform="matrix(1,0,0,1,685,215.00000000000045) translate(0 18.91112)"/><use xlink:href="#y" transform="matrix(1,0,0,1,796.5,215.00000000000045) translate(0 18.91112)"/><use xlink:href="#x" transform="matrix(1,0,0,1,685,255.00000000000045) translate(0 18.91112)"/><use xlink:href="#z" transform="matrix(1,0,0,1,796.5,255.00000000000045) translate(0 18.91112)"/><use xlink:href="#x" transform="matrix(1,0,0,1,685,295.00000000000045) translate(0 18.91112)"/><use xlink:href="#A" transform="matrix(1,0,0,1,796.5,295.00000000000045) translate(0 18.91112)"/><use xlink:href="#x" transform="matrix(1,0,0,1,685,335.00000000000045) translate(0 18.91112)"/><use xlink:href="#B" transform="matrix(1,0,0,1,796.5,335.00000000000045) translate(0 18.91112)"/><use xlink:href="#x" transform="matrix(1,0,0,1,685,375.00000000000045) translate(0 18.91112)"/><use xlink:href="#C" transform="matrix(1,0,0,1,796.5,375.00000000000045) translate(0 18.91112)"/><use xlink:href="#x" transform="matrix(1,0,0,1,685,415.00000000000045) translate(0 18.91112)"/><use xlink:href="#D" transform="matrix(1,0,0,1,796.5,415.00000000000045) translate(0 18.91112)"/><use xlink:href="#x" transform="matrix(1,0,0,1,685,455.00000000000045) translate(0 18.91112)"/><use xlink:href="#E" transform="matrix(1,0,0,1,796.5,455.00000000000045) translate(0 18.91112)"/><use xlink:href="#x" transform="matrix(1,0,0,1,685,495.00000000000045) translate(0 18.91112)"/><use xlink:href="#F" transform="matrix(1,0,0,1,796.5,495.00000000000045) translate(0 18.91112)"/><use xlink:href="#x" transform="matrix(1,0,0,1,685,535.0000000000005) translate(0 18.91112)"/><use xlink:href="#G" transform="matrix(1,0,0,1,796.5,535.0000000000005) translate(0 18.91112)"/><use xlink:href="#x" transform="matrix(1,0,0,1,685,575.0000000000005) translate(0 18.91112)"/><use xlink:href="#H" transform="matrix(1,0,0,1,796.5,575.0000000000005) translate(0 18.91112)"/><path d="M1180 90h111.5v40H1180zM1291.5 90H1403v40h-111.5zM1180 130h111.5v40H1180zM1291.5 130H1403v40h-111.5zM1180 170h111.5v40H1180zM1291.5 170H1403v40h-111.5zM1180 210h111.5v40H1180zM1291.5 210H1403v40h-111.5zM1180 250h111.5v40H1180zM1291.5 250H1403v40h-111.5zM1180 290h111.5v40H1180zM1291.5 290H1403v40h-111.5zM1180 330h111.5v40H1180zM1291.5 330H1403v40h-111.5zM1180 370h111.5v40H1180zM1291.5 370H1403v40h-111.5zM1180 410h111.5v40H1180zM1291.5 410H1403v40h-111.5zM1180 450h111.5v40H1180zM1291.5 450H1403v40h-111.5zM1180 490h111.5v40H1180zM1291.5 490H1403v40h-111.5zM1180 530h111.5v40H1180zM1291.5 530H1403v40h-111.5zM1180 570h111.5v40H1180zM1291.5 570H1403v40h-111.5z" fill-opacity="0"/><path d="M1180 90v40M1291.5 90v40M1403 90v40M1180 130v40M1291.5 130v40M1403 130v40M1180 170v40M1291.5 170v40M1403 170v40M1180 210v40M1291.5 210v40M1403 210v40M1180 250v40M1291.5 250v40M1403 250v40M1180 290v40M1291.5 290v40M1403 290v40M1180 330v40M1291.5 330v40M1403 330v40M1180 370v40M1291.5 370v40M1403 370v40M1180 410v40M1291.5 410v40M1403 410v40M1180 450v40M1291.5 450v40M1403 450v40M1180 490v40M1291.5 490v40M1403 490v40M1180 530v40M1291.5 530v40M1403 530v40M1180 570v40M1291.5 570v40M1403 570v40M1180 90h111.5M1291.5 90H1403M1180 130h111.5M1291.5 130H1403M1180 170h111.5M1291.5 170H1403M1180 210h111.5M1291.5 210H1403M1180 250h111.5M1291.5 250H1403M1180 290h111.5M1291.5 290H1403M1180 330h111.5M1291.5 330H1403M1180 370h111.5M1291.5 370H1403M1180 410h111.5M1291.5 410H1403M1180 450h111.5M1291.5 450H1403M1180 490h111.5M1291.5 490H1403M1180 530h111.5M1291.5 530H1403M1180 570h111.5M1180 610h111.5M1291.5 570H1403M1291.5 610H1403" stroke="#000" fill="none"/><use xlink:href="#e" transform="matrix(1,0,0,1,1185,95.00000000000045) translate(0 19.444444444444443)"/><use xlink:href="#f" transform="matrix(1,0,0,1,1296.5,95.00000000000045) translate(0 19.444444444444443)"/><use xlink:href="#I" transform="matrix(1,0,0,1,1185,135.00000000000045) translate(0 19.444444444444443)"/><use xlink:href="#J" transform="matrix(1,0,0,1,1296.5,135.00000000000045) translate(0 19.444444444444443)"/><use xlink:href="#I" transform="matrix(1,0,0,1,1185,175.00000000000045) translate(0 19.444444444444443)"/><use xlink:href="#K" transform="matrix(1,0,0,1,1296.5,175.00000000000045) translate(0 19.444444444444443)"/><use xlink:href="#L" transform="matrix(1,0,0,1,1185,215.00000000000045) translate(0 18.91112)"/><use xlink:href="#M" transform="matrix(1,0,0,1,1296.5,215.00000000000045) translate(0 18.91112)"/><use xlink:href="#L" transform="matrix(1,0,0,1,1185,255.00000000000045) translate(0 18.91112)"/><use xlink:href="#N" transform="matrix(1,0,0,1,1296.5,255.00000000000045) translate(0 18.91112)"/><use xlink:href="#L" transform="matrix(1,0,0,1,1185,295.00000000000045) translate(0 18.91112)"/><use xlink:href="#O" transform="matrix(1,0,0,1,1296.5,295.00000000000045) translate(0 18.91112)"/><use xlink:href="#L" transform="matrix(1,0,0,1,1185,335.00000000000045) translate(0 18.91112)"/><use xlink:href="#P" transform="matrix(1,0,0,1,1296.5,335.00000000000045) translate(0 18.91112)"/><use xlink:href="#L" transform="matrix(1,0,0,1,1185,375.00000000000045) translate(0 18.91112)"/><use xlink:href="#Q" transform="matrix(1,0,0,1,1296.5,375.00000000000045) translate(0 18.91112)"/><use xlink:href="#L" transform="matrix(1,0,0,1,1185,415.00000000000045) translate(0 18.91112)"/><use xlink:href="#R" transform="matrix(1,0,0,1,1296.5,415.00000000000045) translate(0 18.91112)"/><use xlink:href="#L" transform="matrix(1,0,0,1,1185,455.00000000000045) translate(0 18.91112)"/><use xlink:href="#S" transform="matrix(1,0,0,1,1296.5,455.00000000000045) translate(0 18.91112)"/><use xlink:href="#L" transform="matrix(1,0,0,1,1185,495.00000000000045) translate(0 18.91112)"/><use xlink:href="#T" transform="matrix(1,0,0,1,1296.5,495.00000000000045) translate(0 18.91112)"/><use xlink:href="#L" transform="matrix(1,0,0,1,1185,535.0000000000005) translate(0 18.91112)"/><use xlink:href="#U" transform="matrix(1,0,0,1,1296.5,535.0000000000005) translate(0 18.91112)"/><use xlink:href="#L" transform="matrix(1,0,0,1,1185,575.0000000000005) translate(0 18.91112)"/><use xlink:href="#V" transform="matrix(1,0,0,1,1296.5,575.0000000000005) translate(0 18.91112)"/><path d="M203 640h110v40H203zM313 640h110v40H313z" fill-opacity="0"/><path d="M203 640v40M313 640v40M423 640v40M203 640h110M203 680h110M313 640h110M313 680h110" stroke="#000" fill="none"/><use xlink:href="#g" transform="matrix(1,0,0,1,208,645) translate(0 19.444444444444443)"/><use xlink:href="#W" transform="matrix(1,0,0,1,318,645) translate(0 19.444444444444443)"/><path d="M680 640h111.5v40H680zM791.5 640H903v40H791.5z" fill-opacity="0"/><path d="M680 640v40M791.5 640v40M903 640v40M680 640h111.5M680 680h111.5M791.5 640H903M791.5 680H903" stroke="#000" fill="none"/><use xlink:href="#u" transform="matrix(1,0,0,1,685,645) translate(0 19.444444444444443)"/><use xlink:href="#X" transform="matrix(1,0,0,1,796.5,645) translate(0 19.444444444444443)"/><path d="M1180 640h111.5v40H1180zM1291.5 640H1403v40h-111.5z" fill-opacity="0"/><path d="M1180 640v40M1291.5 640v40M1403 640v40M1180 640h111.5M1180 680h111.5M1291.5 640H1403M1291.5 680H1403" stroke="#000" fill="none"/><g><use xlink:href="#I" transform="matrix(1,0,0,1,1185,645) translate(0 19.444444444444443)"/></g><g><use xlink:href="#Y" transform="matrix(1,0,0,1,1296.5,645) translate(0 19.444444444444443)"/></g><defs><path fill="#333" d="M30-248c87 1 191-15 191 75 0 78-77 80-158 76V0H30v-248zm33 125c57 0 124 11 124-50 0-59-68-47-124-48v98" id="Z"/><path fill="#333" d="M141-36C126-15 110 5 73 4 37 3 15-17 15-53c-1-64 63-63 125-63 3-35-9-54-41-54-24 1-41 7-42 31l-33-3c5-37 33-52 76-52 45 0 72 20 72 64v82c-1 20 7 32 28 27v20c-31 9-61-2-59-35zM48-53c0 20 12 33 32 33 41-3 63-29 60-74-43 2-92-5-92 41" id="aa"/><path fill="#333" d="M114-163C36-179 61-72 57 0H25l-1-190h30c1 12-1 29 2 39 6-27 23-49 58-41v29" id="ab"/><path fill="#333" d="M59-47c-2 24 18 29 38 22v24C64 9 27 4 27-40v-127H5v-23h24l9-43h21v43h35v23H59v120" id="ac"/><path fill="#333" d="M24-231v-30h32v30H24zM24 0v-190h32V0H24" id="ad"/><path fill="#333" d="M100-194c62-1 85 37 85 99 1 63-27 99-86 99S16-35 15-95c0-66 28-99 85-99zM99-20c44 1 53-31 53-75 0-43-8-75-51-75s-53 32-53 75 10 74 51 75" id="ae"/><path fill="#333" d="M117-194c89-4 53 116 60 194h-32v-121c0-31-8-49-39-48C34-167 62-67 57 0H25l-1-190h30c1 10-1 24 2 32 11-22 29-35 61-36" id="af"/><g id="a"><use transform="matrix(0.06172839506172839,0,0,0.06172839506172839,0,0)" xlink:href="#Z"/><use transform="matrix(0.06172839506172839,0,0,0.06172839506172839,14.814814814814813,0)" xlink:href="#aa"/><use transform="matrix(0.06172839506172839,0,0,0.06172839506172839,27.160493827160494,0)" xlink:href="#ab"/><use transform="matrix(0.06172839506172839,0,0,0.06172839506172839,34.50617283950617,0)" xlink:href="#ac"/><use transform="matrix(0.06172839506172839,0,0,0.06172839506172839,40.67901234567901,0)" xlink:href="#ad"/><use transform="matrix(0.06172839506172839,0,0,0.06172839506172839,45.55555555555556,0)" xlink:href="#ac"/><use transform="matrix(0.06172839506172839,0,0,0.06172839506172839,51.7283950617284,0)" xlink:href="#ad"/><use transform="matrix(0.06172839506172839,0,0,0.06172839506172839,56.604938271604944,0)" xlink:href="#ae"/><use transform="matrix(0.06172839506172839,0,0,0.06172839506172839,68.95061728395062,0)" xlink:href="#af"/></g><path fill="#333" d="M160-131c35 5 61 23 61 61C221 17 115-2 30 0v-248c76 3 177-17 177 60 0 33-19 50-47 57zm-97-11c50-1 110 9 110-42 0-47-63-36-110-37v79zm0 115c55-2 124 14 124-45 0-56-70-42-124-44v89" id="ag"/><use transform="matrix(0.06172839506172839,0,0,0.06172839506172839,0,0)" xlink:href="#ag" id="b"/><path fill="#333" d="M205 0l-28-72H64L36 0H1l101-248h38L239 0h-34zm-38-99l-47-123c-12 45-31 82-46 123h93" id="ah"/><use transform="matrix(0.06172839506172839,0,0,0.06172839506172839,0,0)" xlink:href="#ah" id="c"/><path fill="#333" d="M212-179c-10-28-35-45-73-45-59 0-87 40-87 99 0 60 29 101 89 101 43 0 62-24 78-52l27 14C228-24 195 4 139 4 59 4 22-46 18-125c-6-104 99-153 187-111 19 9 31 26 39 46" id="ai"/><use transform="matrix(0.06172839506172839,0,0,0.06172839506172839,0,0)" xlink:href="#ai" id="d"/><path d="M30-248c87 1 191-15 191 75 0 78-77 80-158 76V0H30v-248zm33 125c57 0 124 11 124-50 0-59-68-47-124-48v98" id="aj"/><path d="M141-36C126-15 110 5 73 4 37 3 15-17 15-53c-1-64 63-63 125-63 3-35-9-54-41-54-24 1-41 7-42 31l-33-3c5-37 33-52 76-52 45 0 72 20 72 64v82c-1 20 7 32 28 27v20c-31 9-61-2-59-35zM48-53c0 20 12 33 32 33 41-3 63-29 60-74-43 2-92-5-92 41" id="ak"/><path d="M114-163C36-179 61-72 57 0H25l-1-190h30c1 12-1 29 2 39 6-27 23-49 58-41v29" id="al"/><path d="M59-47c-2 24 18 29 38 22v24C64 9 27 4 27-40v-127H5v-23h24l9-43h21v43h35v23H59v120" id="am"/><path d="M24-231v-30h32v30H24zM24 0v-190h32V0H24" id="an"/><path d="M100-194c62-1 85 37 85 99 1 63-27 99-86 99S16-35 15-95c0-66 28-99 85-99zM99-20c44 1 53-31 53-75 0-43-8-75-51-75s-53 32-53 75 10 74 51 75" id="ao"/><path d="M117-194c89-4 53 116 60 194h-32v-121c0-31-8-49-39-48C34-167 62-67 57 0H25l-1-190h30c1 10-1 24 2 32 11-22 29-35 61-36" id="ap"/><g id="e"><use transform="matrix(0.06172839506172839,0,0,0.06172839506172839,0,0)" xlink:href="#aj"/><use transform="matrix(0.06172839506172839,0,0,0.06172839506172839,14.814814814814813,0)" xlink:href="#ak"/><use transform="matrix(0.06172839506172839,0,0,0.06172839506172839,27.160493827160494,0)" xlink:href="#al"/><use transform="matrix(0.06172839506172839,0,0,0.06172839506172839,34.50617283950617,0)" xlink:href="#am"/><use transform="matrix(0.06172839506172839,0,0,0.06172839506172839,40.67901234567901,0)" xlink:href="#an"/><use transform="matrix(0.06172839506172839,0,0,0.06172839506172839,45.55555555555556,0)" xlink:href="#am"/><use transform="matrix(0.06172839506172839,0,0,0.06172839506172839,51.7283950617284,0)" xlink:href="#an"/><use transform="matrix(0.06172839506172839,0,0,0.06172839506172839,56.604938271604944,0)" xlink:href="#ao"/><use transform="matrix(0.06172839506172839,0,0,0.06172839506172839,68.95061728395062,0)" xlink:href="#ap"/></g><path d="M137 0h-34L2-248h35l83 218 83-218h36" id="aq"/><path d="M24 0v-261h32V0H24" id="ar"/><path d="M84 4C-5 8 30-112 23-190h32v120c0 31 7 50 39 49 72-2 45-101 50-169h31l1 190h-30c-1-10 1-25-2-33-11 22-28 36-60 37" id="as"/><path d="M100-194c63 0 86 42 84 106H49c0 40 14 67 53 68 26 1 43-12 49-29l28 8c-11 28-37 45-77 45C44 4 14-33 15-96c1-61 26-98 85-98zm52 81c6-60-76-77-97-28-3 7-6 17-6 28h103" id="at"/><g id="f"><use transform="matrix(0.06172839506172839,0,0,0.06172839506172839,0,0)" xlink:href="#aq"/><use transform="matrix(0.06172839506172839,0,0,0.06172839506172839,13.148148148148147,0)" xlink:href="#ak"/><use transform="matrix(0.06172839506172839,0,0,0.06172839506172839,25.493827160493826,0)" xlink:href="#ar"/><use transform="matrix(0.06172839506172839,0,0,0.06172839506172839,30.370370370370367,0)" xlink:href="#as"/><use transform="matrix(0.06172839506172839,0,0,0.06172839506172839,42.716049382716044,0)" xlink:href="#at"/></g><path d="M205 0l-28-72H64L36 0H1l101-248h38L239 0h-34zm-38-99l-47-123c-12 45-31 82-46 123h93" id="au"/><use transform="matrix(0.06172839506172839,0,0,0.06172839506172839,0,0)" xlink:href="#au" id="g"/><path d="M194-70c0 46-34 64-81 66v29H91V-4C42-5 12-27 4-67l30-6c5 28 25 41 57 43v-87c-38-9-76-20-76-67 1-42 33-58 76-59v-23h22v23c45 0 67 20 76 56l-31 6c-5-23-18-35-45-37v78c41 10 81 20 81 70zm-81 41c51 7 71-66 19-77-6-2-12-4-19-6v83zM91-219c-47-6-63 57-18 69 6 2 12 3 18 5v-74" id="av"/><path d="M126-127c33 6 58 20 58 59 0 88-139 92-164 29-3-8-5-16-6-25l32-3c6 27 21 44 54 44 32 0 52-15 52-46 0-38-36-46-79-43v-28c39 1 72-4 72-42 0-27-17-43-46-43-28 0-47 15-49 41l-32-3c6-42 35-63 81-64 48-1 79 21 79 65 0 36-21 52-52 59" id="aw"/><g id="h"><use transform="matrix(0.06172839506172839,0,0,0.06172839506172839,0,0)" xlink:href="#av"/><use transform="matrix(0.06172839506172839,0,0,0.06172839506172839,12.345679012345679,0)" xlink:href="#aw"/></g><path d="M155-56V0h-30v-56H8v-25l114-167h33v167h35v25h-35zm-30-156c-27 46-58 90-88 131h88v-131" id="ax"/><g id="i"><use transform="matrix(0.06172839506172839,0,0,0.06172839506172839,0,0)" xlink:href="#av"/><use transform="matrix(0.06172839506172839,0,0,0.06172839506172839,12.345679012345679,0)" xlink:href="#ax"/></g><use transform="matrix(0.05432111111111112,0,0,0.05432111111111112,0,0)" xlink:href="#au" id="j"/><path d="M54-142c48-35 137-8 131 61C196 18 31 33 14-55l32-4c7 23 22 37 52 37 35-1 51-22 54-58 4-55-73-65-99-34H22l8-134h141v27H59" id="ay"/><g id="k"><use transform="matrix(0.05432111111111112,0,0,0.05432111111111112,0,0)" xlink:href="#av"/><use transform="matrix(0.05432111111111112,0,0,0.05432111111111112,10.864222222222224,0)" xlink:href="#ay"/></g><path d="M110-160c48 1 74 30 74 79 0 53-28 85-80 85-65 0-83-55-86-122-5-90 50-162 133-122 14 7 22 21 27 39l-31 6c-5-40-67-38-82-6-9 19-15 44-15 74 11-20 30-34 60-33zm-7 138c34 0 49-23 49-58s-16-56-50-56c-29 0-50 16-49 49 1 36 15 65 50 65" id="az"/><g id="l"><use transform="matrix(0.05432111111111112,0,0,0.05432111111111112,0,0)" xlink:href="#av"/><use transform="matrix(0.05432111111111112,0,0,0.05432111111111112,10.864222222222224,0)" xlink:href="#az"/></g><path d="M64 0c3-98 48-159 88-221H18v-27h164v26C143-157 98-101 97 0H64" id="aA"/><g id="m"><use transform="matrix(0.05432111111111112,0,0,0.05432111111111112,0,0)" xlink:href="#av"/><use transform="matrix(0.05432111111111112,0,0,0.05432111111111112,10.864222222222224,0)" xlink:href="#aA"/></g><path d="M134-131c28 9 52 24 51 62-1 50-34 73-85 73S17-19 16-69c0-36 21-54 49-61-75-25-45-126 34-121 46 3 78 18 79 63 0 33-17 51-44 57zm-34-11c31 1 46-15 46-44 0-28-17-43-47-42-29 0-46 13-45 42 1 28 16 44 46 44zm1 122c35 0 51-18 51-52 0-30-18-46-53-46-33 0-51 17-51 47 0 34 19 51 53 51" id="aB"/><g id="n"><use transform="matrix(0.05432111111111112,0,0,0.05432111111111112,0,0)" xlink:href="#av"/><use transform="matrix(0.05432111111111112,0,0,0.05432111111111112,10.864222222222224,0)" xlink:href="#aB"/></g><path d="M99-251c64 0 84 50 84 122C183-37 130 33 47-8c-14-7-20-23-25-40l30-5c6 39 69 39 84 7 9-19 16-44 16-74-10 22-31 35-62 35-49 0-73-33-73-83 0-54 28-83 82-83zm-1 141c31-1 51-18 51-49 0-36-14-67-51-67-34 0-49 23-49 58 0 34 15 58 49 58" id="aC"/><g id="o"><use transform="matrix(0.05432111111111112,0,0,0.05432111111111112,0,0)" xlink:href="#av"/><use transform="matrix(0.05432111111111112,0,0,0.05432111111111112,10.864222222222224,0)" xlink:href="#aC"/></g><path d="M27 0v-27h64v-190l-56 39v-29l58-41h29v221h61V0H27" id="aD"/><path d="M101-251c68 0 85 55 85 127S166 4 100 4C33 4 14-52 14-124c0-73 17-127 87-127zm-1 229c47 0 54-49 54-102s-4-102-53-102c-51 0-55 48-55 102 0 53 5 102 54 102" id="aE"/><g id="p"><use transform="matrix(0.05432111111111112,0,0,0.05432111111111112,0,0)" xlink:href="#av"/><use transform="matrix(0.05432111111111112,0,0,0.05432111111111112,10.864222222222224,0)" xlink:href="#aD"/><use transform="matrix(0.05432111111111112,0,0,0.05432111111111112,21.72844444444445,0)" xlink:href="#aE"/></g><g id="q"><use transform="matrix(0.05432111111111112,0,0,0.05432111111111112,0,0)" xlink:href="#av"/><use transform="matrix(0.05432111111111112,0,0,0.05432111111111112,10.864222222222224,0)" xlink:href="#aD"/><use transform="matrix(0.05432111111111112,0,0,0.05432111111111112,20.26177444444445,0)" xlink:href="#aD"/></g><path d="M101-251c82-7 93 87 43 132L82-64C71-53 59-42 53-27h129V0H18c2-99 128-94 128-182 0-28-16-43-45-43s-46 15-49 41l-32-3c6-41 34-60 81-64" id="aF"/><g id="r"><use transform="matrix(0.05432111111111112,0,0,0.05432111111111112,0,0)" xlink:href="#av"/><use transform="matrix(0.05432111111111112,0,0,0.05432111111111112,10.864222222222224,0)" xlink:href="#aD"/><use transform="matrix(0.05432111111111112,0,0,0.05432111111111112,21.72844444444445,0)" xlink:href="#aF"/></g><g id="s"><use transform="matrix(0.05432111111111112,0,0,0.05432111111111112,0,0)" xlink:href="#av"/><use transform="matrix(0.05432111111111112,0,0,0.05432111111111112,10.864222222222224,0)" xlink:href="#aD"/><use transform="matrix(0.05432111111111112,0,0,0.05432111111111112,21.72844444444445,0)" xlink:href="#aw"/></g><g id="t"><use transform="matrix(0.05432111111111112,0,0,0.05432111111111112,0,0)" xlink:href="#av"/><use transform="matrix(0.05432111111111112,0,0,0.05432111111111112,10.864222222222224,0)" xlink:href="#aD"/><use transform="matrix(0.05432111111111112,0,0,0.05432111111111112,21.72844444444445,0)" xlink:href="#ax"/></g><path d="M160-131c35 5 61 23 61 61C221 17 115-2 30 0v-248c76 3 177-17 177 60 0 33-19 50-47 57zm-97-11c50-1 110 9 110-42 0-47-63-36-110-37v79zm0 115c55-2 124 14 124-45 0-56-70-42-124-44v89" id="aG"/><use transform="matrix(0.06172839506172839,0,0,0.06172839506172839,0,0)" xlink:href="#aG" id="u"/><g id="v"><use transform="matrix(0.06172839506172839,0,0,0.06172839506172839,0,0)" xlink:href="#av"/><use transform="matrix(0.06172839506172839,0,0,0.06172839506172839,12.345679012345679,0)" xlink:href="#ax"/><use transform="matrix(0.06172839506172839,0,0,0.06172839506172839,24.691358024691358,0)" xlink:href="#ax"/></g><g id="w"><use transform="matrix(0.06172839506172839,0,0,0.06172839506172839,0,0)" xlink:href="#av"/><use transform="matrix(0.06172839506172839,0,0,0.06172839506172839,12.345679012345679,0)" xlink:href="#ax"/><use transform="matrix(0.06172839506172839,0,0,0.06172839506172839,24.691358024691358,0)" xlink:href="#ay"/></g><use transform="matrix(0.05432111111111112,0,0,0.05432111111111112,0,0)" xlink:href="#aG" id="x"/><g id="y"><use transform="matrix(0.05432111111111112,0,0,0.05432111111111112,0,0)" xlink:href="#av"/><use transform="matrix(0.05432111111111112,0,0,0.05432111111111112,10.864222222222224,0)" xlink:href="#ax"/><use transform="matrix(0.05432111111111112,0,0,0.05432111111111112,21.72844444444445,0)" xlink:href="#az"/></g><g id="z"><use transform="matrix(0.05432111111111112,0,0,0.05432111111111112,0,0)" xlink:href="#av"/><use transform="matrix(0.05432111111111112,0,0,0.05432111111111112,10.864222222222224,0)" xlink:href="#ax"/><use transform="matrix(0.05432111111111112,0,0,0.05432111111111112,21.72844444444445,0)" xlink:href="#aA"/></g><g id="A"><use transform="matrix(0.05432111111111112,0,0,0.05432111111111112,0,0)" xlink:href="#av"/><use transform="matrix(0.05432111111111112,0,0,0.05432111111111112,10.864222222222224,0)" xlink:href="#ax"/><use transform="matrix(0.05432111111111112,0,0,0.05432111111111112,21.72844444444445,0)" xlink:href="#aB"/></g><g id="B"><use transform="matrix(0.05432111111111112,0,0,0.05432111111111112,0,0)" xlink:href="#av"/><use transform="matrix(0.05432111111111112,0,0,0.05432111111111112,10.864222222222224,0)" xlink:href="#ax"/><use transform="matrix(0.05432111111111112,0,0,0.05432111111111112,21.72844444444445,0)" xlink:href="#aC"/></g><g id="C"><use transform="matrix(0.05432111111111112,0,0,0.05432111111111112,0,0)" xlink:href="#av"/><use transform="matrix(0.05432111111111112,0,0,0.05432111111111112,10.864222222222224,0)" xlink:href="#ay"/><use transform="matrix(0.05432111111111112,0,0,0.05432111111111112,21.72844444444445,0)" xlink:href="#aE"/></g><g id="D"><use transform="matrix(0.05432111111111112,0,0,0.05432111111111112,0,0)" xlink:href="#av"/><use transform="matrix(0.05432111111111112,0,0,0.05432111111111112,10.864222222222224,0)" xlink:href="#ay"/><use transform="matrix(0.05432111111111112,0,0,0.05432111111111112,21.72844444444445,0)" xlink:href="#aD"/></g><g id="E"><use transform="matrix(0.05432111111111112,0,0,0.05432111111111112,0,0)" xlink:href="#av"/><use transform="matrix(0.05432111111111112,0,0,0.05432111111111112,10.864222222222224,0)" xlink:href="#ay"/><use transform="matrix(0.05432111111111112,0,0,0.05432111111111112,21.72844444444445,0)" xlink:href="#aF"/></g><g id="F"><use transform="matrix(0.05432111111111112,0,0,0.05432111111111112,0,0)" xlink:href="#av"/><use transform="matrix(0.05432111111111112,0,0,0.05432111111111112,10.864222222222224,0)" xlink:href="#ay"/><use transform="matrix(0.05432111111111112,0,0,0.05432111111111112,21.72844444444445,0)" xlink:href="#aw"/></g><g id="G"><use transform="matrix(0.05432111111111112,0,0,0.05432111111111112,0,0)" xlink:href="#av"/><use transform="matrix(0.05432111111111112,0,0,0.05432111111111112,10.864222222222224,0)" xlink:href="#ay"/><use transform="matrix(0.05432111111111112,0,0,0.05432111111111112,21.72844444444445,0)" xlink:href="#ax"/></g><g id="H"><use transform="matrix(0.05432111111111112,0,0,0.05432111111111112,0,0)" xlink:href="#av"/><use transform="matrix(0.05432111111111112,0,0,0.05432111111111112,10.864222222222224,0)" xlink:href="#ay"/><use transform="matrix(0.05432111111111112,0,0,0.05432111111111112,21.72844444444445,0)" xlink:href="#ay"/></g><path d="M212-179c-10-28-35-45-73-45-59 0-87 40-87 99 0 60 29 101 89 101 43 0 62-24 78-52l27 14C228-24 195 4 139 4 59 4 22-46 18-125c-6-104 99-153 187-111 19 9 31 26 39 46" id="aH"/><use transform="matrix(0.06172839506172839,0,0,0.06172839506172839,0,0)" xlink:href="#aH" id="I"/><g id="J"><use transform="matrix(0.06172839506172839,0,0,0.06172839506172839,0,0)" xlink:href="#av"/><use transform="matrix(0.06172839506172839,0,0,0.06172839506172839,12.345679012345679,0)" xlink:href="#aF"/><use transform="matrix(0.06172839506172839,0,0,0.06172839506172839,24.691358024691358,0)" xlink:href="#aE"/><use transform="matrix(0.06172839506172839,0,0,0.06172839506172839,37.03703703703704,0)" xlink:href="#aE"/></g><g id="K"><use transform="matrix(0.06172839506172839,0,0,0.06172839506172839,0,0)" xlink:href="#av"/><use transform="matrix(0.06172839506172839,0,0,0.06172839506172839,12.345679012345679,0)" xlink:href="#aF"/><use transform="matrix(0.06172839506172839,0,0,0.06172839506172839,24.691358024691358,0)" xlink:href="#aE"/><use transform="matrix(0.06172839506172839,0,0,0.06172839506172839,37.03703703703704,0)" xlink:href="#aD"/></g><use transform="matrix(0.05432111111111112,0,0,0.05432111111111112,0,0)" xlink:href="#aH" id="L"/><g id="M"><use transform="matrix(0.05432111111111112,0,0,0.05432111111111112,0,0)" xlink:href="#av"/><use transform="matrix(0.05432111111111112,0,0,0.05432111111111112,10.864222222222224,0)" xlink:href="#aF"/><use transform="matrix(0.05432111111111112,0,0,0.05432111111111112,21.72844444444445,0)" xlink:href="#aE"/><use transform="matrix(0.05432111111111112,0,0,0.05432111111111112,32.59266666666667,0)" xlink:href="#aF"/></g><g id="N"><use transform="matrix(0.05432111111111112,0,0,0.05432111111111112,0,0)" xlink:href="#av"/><use transform="matrix(0.05432111111111112,0,0,0.05432111111111112,10.864222222222224,0)" xlink:href="#aF"/><use transform="matrix(0.05432111111111112,0,0,0.05432111111111112,21.72844444444445,0)" xlink:href="#aE"/><use transform="matrix(0.05432111111111112,0,0,0.05432111111111112,32.59266666666667,0)" xlink:href="#aw"/></g><g id="O"><use transform="matrix(0.05432111111111112,0,0,0.05432111111111112,0,0)" xlink:href="#av"/><use transform="matrix(0.05432111111111112,0,0,0.05432111111111112,10.864222222222224,0)" xlink:href="#aF"/><use transform="matrix(0.05432111111111112,0,0,0.05432111111111112,21.72844444444445,0)" xlink:href="#aE"/><use transform="matrix(0.05432111111111112,0,0,0.05432111111111112,32.59266666666667,0)" xlink:href="#ax"/></g><g id="P"><use transform="matrix(0.05432111111111112,0,0,0.05432111111111112,0,0)" xlink:href="#av"/><use transform="matrix(0.05432111111111112,0,0,0.05432111111111112,10.864222222222224,0)" xlink:href="#aF"/><use transform="matrix(0.05432111111111112,0,0,0.05432111111111112,21.72844444444445,0)" xlink:href="#aE"/><use transform="matrix(0.05432111111111112,0,0,0.05432111111111112,32.59266666666667,0)" xlink:href="#ay"/></g><g id="Q"><use transform="matrix(0.05432111111111112,0,0,0.05432111111111112,0,0)" xlink:href="#av"/><use transform="matrix(0.05432111111111112,0,0,0.05432111111111112,10.864222222222224,0)" xlink:href="#aF"/><use transform="matrix(0.05432111111111112,0,0,0.05432111111111112,21.72844444444445,0)" xlink:href="#aE"/><use transform="matrix(0.05432111111111112,0,0,0.05432111111111112,32.59266666666667,0)" xlink:href="#az"/></g><g id="R"><use transform="matrix(0.05432111111111112,0,0,0.05432111111111112,0,0)" xlink:href="#av"/><use transform="matrix(0.05432111111111112,0,0,0.05432111111111112,10.864222222222224,0)" xlink:href="#aF"/><use transform="matrix(0.05432111111111112,0,0,0.05432111111111112,21.72844444444445,0)" xlink:href="#aE"/><use transform="matrix(0.05432111111111112,0,0,0.05432111111111112,32.59266666666667,0)" xlink:href="#aA"/></g><g id="S"><use transform="matrix(0.05432111111111112,0,0,0.05432111111111112,0,0)" xlink:href="#av"/><use transform="matrix(0.05432111111111112,0,0,0.05432111111111112,10.864222222222224,0)" xlink:href="#aF"/><use transform="matrix(0.05432111111111112,0,0,0.05432111111111112,21.72844444444445,0)" xlink:href="#aE"/><use transform="matrix(0.05432111111111112,0,0,0.05432111111111112,32.59266666666667,0)" xlink:href="#aB"/></g><g id="T"><use transform="matrix(0.05432111111111112,0,0,0.05432111111111112,0,0)" xlink:href="#av"/><use transform="matrix(0.05432111111111112,0,0,0.05432111111111112,10.864222222222224,0)" xlink:href="#aF"/><use transform="matrix(0.05432111111111112,0,0,0.05432111111111112,21.72844444444445,0)" xlink:href="#aE"/><use transform="matrix(0.05432111111111112,0,0,0.05432111111111112,32.59266666666667,0)" xlink:href="#aC"/></g><g id="U"><use transform="matrix(0.05432111111111112,0,0,0.05432111111111112,0,0)" xlink:href="#av"/><use transform="matrix(0.05432111111111112,0,0,0.05432111111111112,10.864222222222224,0)" xlink:href="#aF"/><use transform="matrix(0.05432111111111112,0,0,0.05432111111111112,21.72844444444445,0)" xlink:href="#aD"/><use transform="matrix(0.05432111111111112,0,0,0.05432111111111112,32.59266666666667,0)" xlink:href="#aE"/></g><g id="V"><use transform="matrix(0.05432111111111112,0,0,0.05432111111111112,0,0)" xlink:href="#av"/><use transform="matrix(0.05432111111111112,0,0,0.05432111111111112,10.864222222222224,0)" xlink:href="#aF"/><use transform="matrix(0.05432111111111112,0,0,0.05432111111111112,21.72844444444445,0)" xlink:href="#aD"/><use transform="matrix(0.05432111111111112,0,0,0.05432111111111112,31.12599666666667,0)" xlink:href="#aD"/></g><g id="W"><use transform="matrix(0.06172839506172839,0,0,0.06172839506172839,0,0)" xlink:href="#av"/><use transform="matrix(0.06172839506172839,0,0,0.06172839506172839,12.345679012345679,0)" xlink:href="#aD"/><use transform="matrix(0.06172839506172839,0,0,0.06172839506172839,24.691358024691358,0)" xlink:href="#aE"/><use transform="matrix(0.06172839506172839,0,0,0.06172839506172839,37.03703703703704,0)" xlink:href="#aF"/></g><g id="X"><use transform="matrix(0.06172839506172839,0,0,0.06172839506172839,0,0)" xlink:href="#av"/><use transform="matrix(0.06172839506172839,0,0,0.06172839506172839,12.345679012345679,0)" xlink:href="#ay"/><use transform="matrix(0.06172839506172839,0,0,0.06172839506172839,24.691358024691358,0)" xlink:href="#aC"/><use transform="matrix(0.06172839506172839,0,0,0.06172839506172839,37.03703703703704,0)" xlink:href="#ax"/></g><path d="M68-38c1 34 0 65-14 84H32c9-13 17-26 17-46H33v-38h35" id="aI"/><g id="Y"><use transform="matrix(0.06172839506172839,0,0,0.06172839506172839,0,0)" xlink:href="#av"/><use transform="matrix(0.06172839506172839,0,0,0.06172839506172839,12.345679012345679,0)" xlink:href="#aF"/><use transform="matrix(0.06172839506172839,0,0,0.06172839506172839,24.691358024691358,0)" xlink:href="#aI"/><use transform="matrix(0.06172839506172839,0,0,0.06172839506172839,30.864197530864196,0)" xlink:href="#ax"/><use transform="matrix(0.06172839506172839,0,0,0.06172839506172839,43.20987654320987,0)" xlink:href="#az"/><use transform="matrix(0.06172839506172839,0,0,0.06172839506172839,55.55555555555555,0)" xlink:href="#az"/></g></defs></g></svg>