<svg xmlns="http://www.w3.org/2000/svg" xmlns:xlink="http://www.w3.org/1999/xlink" xmlns:lucid="lucid" width="1497.3" height="580"><g transform="translate(-22.703703703703695 -60.00000000000006)" lucid:page-tab-id="0_0"><path d="M0 0h1760v1360H0z" fill="#fff"/><path d="M660 86c0-3.3 2.7-6 6-6h88c3.3 0 6 2.7 6 6v528c0 3.3-2.7 6-6 6h-88c-3.3 0-6-2.7-6-6z" stroke="#5e5e5e" stroke-width="3" fill="#fff"/><path d="M660 346c0-3.3 2.7-6 6-6h88c3.3 0 6 2.7 6 6v8c0 3.3-2.7 6-6 6h-88c-3.3 0-6-2.7-6-6z" stroke="#5e5e5e" stroke-width="3" fill="#0c7cba"/><path d="M701 340c-3.3 0-6-2.7-6-6V113c0-3.3-2.7-6-6-6h-3c-3.3 0-4-1.8-1.54-4l21.08-19c2.46-2.2 6.46-2.2 8.92 0l21.08 19c2.46 2.2 1.77 4-1.54 4h-3c-3.3 0-6 2.7-6 6v221c0 3.3-2.7 6-6 6z" stroke="#5e5e5e" stroke-width="3" fill="#ff0"/><path d="M719 360c3.3 0 6 2.7 6 6v221c0 3.3 2.7 6 6 6h3c3.3 0 4 1.8 1.54 4l-21.08 19c-2.46 2.2-6.46 2.2-8.92 0l-21.08-19c-2.46-2.2-1.77-4 1.54-4h3c3.3 0 6-2.7 6-6V366c0-3.3 2.7-6 6-6z" stroke="#5e5e5e" stroke-width="3" fill="#0fc"/><path d="M780 86c0-3.3 2.7-6 6-6h68c3.3 0 6 2.7 6 6v248c0 3.3-2.7 6-6 6h-68c-3.3 0-6-2.7-6-6z" fill="none"/><path d="M780 340c5.52 0 10-4.48 10-10V220c0-5.52 4.48-10 10-10-5.52 0-10-4.48-10-10V90c0-5.52-4.48-10-10-10" stroke="#5e5e5e" stroke-width="3" fill="none"/><use xlink:href="#a" transform="matrix(1,0,0,1,815,85.00000000000034) translate(0 116.11111111111111)"/><use xlink:href="#b" transform="matrix(1,0,0,1,815,85.00000000000034) translate(0 142.7777777777778)"/><path d="M780 366c0-3.3 2.7-6 6-6h68c3.3 0 6 2.7 6 6v248c0 3.3-2.7 6-6 6h-68c-3.3 0-6-2.7-6-6z" fill="none"/><path d="M780 620c5.52 0 10-4.48 10-10V500c0-5.52 4.48-10 10-10-5.52 0-10-4.48-10-10V370c0-5.52-4.48-10-10-10" stroke="#5e5e5e" stroke-width="3" fill="none"/><use xlink:href="#a" transform="matrix(1,0,0,1,815,365.00000000000045) translate(0 116.11111111111111)"/><use xlink:href="#c" transform="matrix(1,0,0,1,815,365.00000000000045) translate(0 142.7777777777778)"/><path d="M856.5 350h-27.4" stroke="#5e5e5e" stroke-width="7" fill="none"/><path d="M860 353.5h-3.6v-7h3.6z" fill="#5e5e5e"/><path d="M811.33 350l14.26-4.64v9.28z" stroke="#5e5e5e" stroke-width="7" fill="#5e5e5e"/><path d="M860 326c0-3.3 2.7-6 6-6h128c3.3 0 6 2.7 6 6v48c0 3.3-2.7 6-6 6H866c-3.3 0-6-2.7-6-6z" stroke="#000" stroke-opacity="0" stroke-width="3" fill="#fff" fill-opacity="0"/><use xlink:href="#d" transform="matrix(1,0,0,1,865,325.0000000000002) translate(2.808641975308646 30.27777777777778)"/><use xlink:href="#e" transform="matrix(1,0,0,1,865,325.0000000000002) translate(82.87037037037037 30.27777777777778)"/><path d="M560 86c0-3.3 2.7-6 6-6h68c3.3 0 6 2.7 6 6v528c0 3.3-2.7 6-6 6h-68c-3.3 0-6-2.7-6-6z" fill="none"/><path d="M640 620c-5.52 0-10-4.48-10-10V360c0-5.52-4.48-10-10-10 5.52 0 10-4.48 10-10V90c0-5.52 4.48-10 10-10" stroke="#5e5e5e" stroke-width="3" fill="none"/><use xlink:href="#f" transform="matrix(1,0,0,1,565,85.00000000000028) translate(-41.296296296296305 269.44444444444446)"/><path d="M180 86c0-3.3 2.7-6 6-6h88c3.3 0 6 2.7 6 6v528c0 3.3-2.7 6-6 6h-88c-3.3 0-6-2.7-6-6z" stroke="#5e5e5e" stroke-width="3" fill="#fff"/><path d="M180 206c0-3.3 2.7-6 6-6h88c3.3 0 6 2.7 6 6v8c0 3.3-2.7 6-6 6h-88c-3.3 0-6-2.7-6-6z" stroke="#5e5e5e" stroke-width="3" fill="#0c7cba"/><path d="M221 200c-3.3 0-6-2.7-6-6v-81c0-3.3-2.7-6-6-6h-3c-3.3 0-4-1.8-1.54-4l21.08-19c2.46-2.2 6.46-2.2 8.92 0l21.08 19c2.46 2.2 1.77 4-1.54 4h-3c-3.3 0-6 2.7-6 6v81c0 3.3-2.7 6-6 6z" stroke="#5e5e5e" stroke-width="3" fill="#ff0"/><path d="M239 230c3.3 0 6 2.7 6 6v351c0 3.3 2.7 6 6 6h3c3.3 0 4 1.8 1.54 4l-21.08 19c-2.46 2.2-6.46 2.2-8.92 0l-21.08-19c-2.46-2.2-1.77-4 1.54-4h3c3.3 0 6-2.7 6-6V236c0-3.3 2.7-6 6-6z" stroke="#5e5e5e" stroke-width="3" fill="#0fc"/><path d="M300 86c0-3.3 2.7-6 6-6h68c3.3 0 6 2.7 6 6v108c0 3.3-2.7 6-6 6h-68c-3.3 0-6-2.7-6-6z" fill="none"/><path d="M300 200c5.52 0 10-4.48 10-10v-40c0-5.52 4.48-10 10-10-5.52 0-10-4.48-10-10V90c0-5.52-4.48-10-10-10" stroke="#5e5e5e" stroke-width="3" fill="none"/><use xlink:href="#a" transform="matrix(1,0,0,1,335,85.0000000000004) translate(0 46.611111111111114)"/><use xlink:href="#b" transform="matrix(1,0,0,1,335,85.0000000000004) translate(0 73.27777777777777)"/><path d="M300 226c0-3.3 2.7-6 6-6h68c3.3 0 6 2.7 6 6v388c0 3.3-2.7 6-6 6h-68c-3.3 0-6-2.7-6-6z" fill="none"/><path d="M300 620c5.52 0 10-4.48 10-10V430c0-5.52 4.48-10 10-10-5.52 0-10-4.48-10-10V230c0-5.52-4.48-10-10-10" stroke="#5e5e5e" stroke-width="3" fill="none"/><use xlink:href="#a" transform="matrix(1,0,0,1,335,225.0000000000008) translate(0 186.11111111111111)"/><use xlink:href="#c" transform="matrix(1,0,0,1,335,225.0000000000008) translate(0 212.77777777777777)"/><path d="M356.5 210h-27.4" stroke="#5e5e5e" stroke-width="7" fill="none"/><path d="M360 213.5h-3.6v-7h3.6z" fill="#5e5e5e"/><path d="M311.33 210l14.26-4.64v9.28z" stroke="#5e5e5e" stroke-width="7" fill="#5e5e5e"/><path d="M360 186c0-3.3 2.7-6 6-6h128c3.3 0 6 2.7 6 6v48c0 3.3-2.7 6-6 6H366c-3.3 0-6-2.7-6-6z" stroke="#000" stroke-opacity="0" stroke-width="3" fill="#fff" fill-opacity="0"/><use xlink:href="#d" transform="matrix(1,0,0,1,365,185.00000000000068) translate(2.808641975308646 30.27777777777778)"/><use xlink:href="#e" transform="matrix(1,0,0,1,365,185.00000000000068) translate(82.87037037037037 30.27777777777778)"/><path d="M80 86c0-3.3 2.7-6 6-6h68c3.3 0 6 2.7 6 6v528c0 3.3-2.7 6-6 6H86c-3.3 0-6-2.7-6-6z" fill="none"/><path d="M160 620c-5.52 0-10-4.48-10-10V360c0-5.52-4.48-10-10-10 5.52 0 10-4.48 10-10V90c0-5.52 4.48-10 10-10" stroke="#5e5e5e" stroke-width="3" fill="none"/><use xlink:href="#f" transform="matrix(1,0,0,1,85,85.00000000000006) translate(-41.296296296296305 269.44444444444446)"/><path d="M1160 86c0-3.3 2.7-6 6-6h88c3.3 0 6 2.7 6 6v528c0 3.3-2.7 6-6 6h-88c-3.3 0-6-2.7-6-6z" stroke="#5e5e5e" stroke-width="3" fill="#fff"/><path d="M1160 486c0-3.3 2.7-6 6-6h88c3.3 0 6 2.7 6 6v8c0 3.3-2.7 6-6 6h-88c-3.3 0-6-2.7-6-6z" stroke="#5e5e5e" stroke-width="3" fill="#0c7cba"/><path d="M1201 480c-3.3 0-6-2.7-6-6V113c0-3.3-2.7-6-6-6h-3c-3.3 0-4-1.8-1.54-4l21.08-19c2.46-2.2 6.46-2.2 8.92 0l21.08 19c2.46 2.2 1.77 4-1.54 4h-3c-3.3 0-6 2.7-6 6v361c0 3.3-2.7 6-6 6z" stroke="#5e5e5e" stroke-width="3" fill="#ff0"/><path d="M1219 500c3.3 0 6 2.7 6 6v81c0 3.3 2.7 6 6 6h3c3.3 0 4 1.8 1.54 4l-21.08 19c-2.46 2.2-6.46 2.2-8.92 0l-21.08-19c-2.46-2.2-1.77-4 1.54-4h3c3.3 0 6-2.7 6-6v-81c0-3.3 2.7-6 6-6z" stroke="#5e5e5e" stroke-width="3" fill="#0fc"/><path d="M1280 86c0-3.3 2.7-6 6-6h68c3.3 0 6 2.7 6 6v388c0 3.3-2.7 6-6 6h-68c-3.3 0-6-2.7-6-6z" fill="none"/><path d="M1280 480c5.52 0 10-4.48 10-10V290c0-5.52 4.48-10 10-10-5.52 0-10-4.48-10-10V90c0-5.52-4.48-10-10-10" stroke="#5e5e5e" stroke-width="3" fill="none"/><use xlink:href="#a" transform="matrix(1,0,0,1,1315,85.00000000000011) translate(0 186.61111111111111)"/><use xlink:href="#b" transform="matrix(1,0,0,1,1315,85.00000000000011) translate(0 213.27777777777777)"/><path d="M1280 506c0-3.3 2.7-6 6-6h68c3.3 0 6 2.7 6 6v108c0 3.3-2.7 6-6 6h-68c-3.3 0-6-2.7-6-6z" fill="none"/><path d="M1280 620c5.52 0 10-4.48 10-10v-40c0-5.52 4.48-10 10-10-5.52 0-10-4.48-10-10v-40c0-5.52-4.48-10-10-10" stroke="#5e5e5e" stroke-width="3" fill="none"/><use xlink:href="#a" transform="matrix(1,0,0,1,1315,505.0000000000007) translate(0 46.111111111111114)"/><use xlink:href="#c" transform="matrix(1,0,0,1,1315,505.0000000000007) translate(0 72.77777777777777)"/><path d="M1356.5 490h-27.4" stroke="#5e5e5e" stroke-width="7" fill="none"/><path d="M1360 493.5h-3.6v-7h3.6z" fill="#5e5e5e"/><path d="M1311.33 490l14.26-4.64v9.28z" stroke="#5e5e5e" stroke-width="7" fill="#5e5e5e"/><path d="M1360 466c0-3.3 2.7-6 6-6h128c3.3 0 6 2.7 6 6v48c0 3.3-2.7 6-6 6h-128c-3.3 0-6-2.7-6-6z" stroke="#000" stroke-opacity="0" stroke-width="3" fill="#fff" fill-opacity="0"/><g><use xlink:href="#d" transform="matrix(1,0,0,1,1365,465.00000000000045) translate(2.808641975308646 30.27777777777778)"/><use xlink:href="#e" transform="matrix(1,0,0,1,1365,465.00000000000045) translate(82.87037037037037 30.27777777777778)"/></g><path d="M1060 86c0-3.3 2.7-6 6-6h68c3.3 0 6 2.7 6 6v528c0 3.3-2.7 6-6 6h-68c-3.3 0-6-2.7-6-6z" fill="none"/><path d="M1140 620c-5.52 0-10-4.48-10-10V360c0-5.52-4.48-10-10-10 5.52 0 10-4.48 10-10V90c0-5.52 4.48-10 10-10" stroke="#5e5e5e" stroke-width="3" fill="none"/><g><use xlink:href="#f" transform="matrix(1,0,0,1,1065,85.00000000000006) translate(-41.296296296296305 269.44444444444446)"/></g><defs><path fill="#333" d="M232-93c-1 65-40 97-104 97C67 4 28-28 28-90v-158h33c8 89-33 224 67 224 102 0 64-133 71-224h33v155" id="g"/><path fill="#333" d="M117-194c89-4 53 116 60 194h-32v-121c0-31-8-49-39-48C34-167 62-67 57 0H25l-1-190h30c1 10-1 24 2 32 11-22 29-35 61-36" id="h"/><path fill="#333" d="M115-194c53 0 69 39 70 98 0 66-23 100-70 100C84 3 66-7 56-30L54 0H23l1-261h32v101c10-23 28-34 59-34zm-8 174c40 0 45-34 45-75 0-40-5-75-45-74-42 0-51 32-51 76 0 43 10 73 51 73" id="i"/><path fill="#333" d="M100-194c62-1 85 37 85 99 1 63-27 99-86 99S16-35 15-95c0-66 28-99 85-99zM99-20c44 1 53-31 53-75 0-43-8-75-51-75s-53 32-53 75 10 74 51 75" id="j"/><path fill="#333" d="M84 4C-5 8 30-112 23-190h32v120c0 31 7 50 39 49 72-2 45-101 50-169h31l1 190h-30c-1-10 1-25-2-33-11 22-28 36-60 37" id="k"/><path fill="#333" d="M85-194c31 0 48 13 60 33l-1-100h32l1 261h-30c-2-10 0-23-3-31C134-8 116 4 85 4 32 4 16-35 15-94c0-66 23-100 70-100zm9 24c-40 0-46 34-46 75 0 40 6 74 45 74 42 0 51-32 51-76 0-42-9-74-50-73" id="l"/><path fill="#333" d="M100-194c63 0 86 42 84 106H49c0 40 14 67 53 68 26 1 43-12 49-29l28 8c-11 28-37 45-77 45C44 4 14-33 15-96c1-61 26-98 85-98zm52 81c6-60-76-77-97-28-3 7-6 17-6 28h103" id="m"/><g id="a"><use transform="matrix(0.06172839506172839,0,0,0.06172839506172839,0,0)" xlink:href="#g"/><use transform="matrix(0.06172839506172839,0,0,0.06172839506172839,15.987654320987653,0)" xlink:href="#h"/><use transform="matrix(0.06172839506172839,0,0,0.06172839506172839,28.333333333333332,0)" xlink:href="#i"/><use transform="matrix(0.06172839506172839,0,0,0.06172839506172839,40.67901234567901,0)" xlink:href="#j"/><use transform="matrix(0.06172839506172839,0,0,0.06172839506172839,53.02469135802469,0)" xlink:href="#k"/><use transform="matrix(0.06172839506172839,0,0,0.06172839506172839,65.37037037037037,0)" xlink:href="#h"/><use transform="matrix(0.06172839506172839,0,0,0.06172839506172839,77.71604938271605,0)" xlink:href="#l"/><use transform="matrix(0.06172839506172839,0,0,0.06172839506172839,90.06172839506173,0)" xlink:href="#m"/><use transform="matrix(0.06172839506172839,0,0,0.06172839506172839,102.40740740740742,0)" xlink:href="#l"/></g><path fill="#333" d="M30-248c87 1 191-15 191 75 0 78-77 80-158 76V0H30v-248zm33 125c57 0 124 11 124-50 0-59-68-47-124-48v98" id="n"/><path fill="#333" d="M114-163C36-179 61-72 57 0H25l-1-190h30c1 12-1 29 2 39 6-27 23-49 58-41v29" id="o"/><path fill="#333" d="M96-169c-40 0-48 33-48 73s9 75 48 75c24 0 41-14 43-38l32 2c-6 37-31 61-74 61-59 0-76-41-82-99-10-93 101-131 147-64 4 7 5 14 7 22l-32 3c-4-21-16-35-41-35" id="p"/><path fill="#333" d="M24-231v-30h32v30H24zM24 0v-190h32V0H24" id="q"/><path fill="#333" d="M177-190C167-65 218 103 67 71c-23-6-38-20-44-43l32-5c15 47 100 32 89-28v-30C133-14 115 1 83 1 29 1 15-40 15-95c0-56 16-97 71-98 29-1 48 16 59 35 1-10 0-23 2-32h30zM94-22c36 0 50-32 50-73 0-42-14-75-50-75-39 0-46 34-46 75s6 73 46 73" id="r"/><g id="b"><use transform="matrix(0.06172839506172839,0,0,0.06172839506172839,0,0)" xlink:href="#n"/><use transform="matrix(0.06172839506172839,0,0,0.06172839506172839,14.814814814814813,0)" xlink:href="#o"/><use transform="matrix(0.06172839506172839,0,0,0.06172839506172839,22.160493827160494,0)" xlink:href="#m"/><use transform="matrix(0.06172839506172839,0,0,0.06172839506172839,34.50617283950617,0)" xlink:href="#p"/><use transform="matrix(0.06172839506172839,0,0,0.06172839506172839,45.61728395061728,0)" xlink:href="#m"/><use transform="matrix(0.06172839506172839,0,0,0.06172839506172839,57.962962962962955,0)" xlink:href="#l"/><use transform="matrix(0.06172839506172839,0,0,0.06172839506172839,70.30864197530863,0)" xlink:href="#q"/><use transform="matrix(0.06172839506172839,0,0,0.06172839506172839,75.18518518518518,0)" xlink:href="#h"/><use transform="matrix(0.06172839506172839,0,0,0.06172839506172839,87.53086419753086,0)" xlink:href="#r"/></g><path fill="#333" d="M63-220v92h138v28H63V0H30v-248h175v28H63" id="s"/><path fill="#333" d="M24 0v-261h32V0H24" id="t"/><path fill="#333" d="M206 0h-36l-40-164L89 0H53L-1-190h32L70-26l43-164h34l41 164 42-164h31" id="u"/><g id="c"><use transform="matrix(0.06172839506172839,0,0,0.06172839506172839,0,0)" xlink:href="#s"/><use transform="matrix(0.06172839506172839,0,0,0.06172839506172839,13.518518518518517,0)" xlink:href="#j"/><use transform="matrix(0.06172839506172839,0,0,0.06172839506172839,25.864197530864196,0)" xlink:href="#t"/><use transform="matrix(0.06172839506172839,0,0,0.06172839506172839,30.74074074074074,0)" xlink:href="#t"/><use transform="matrix(0.06172839506172839,0,0,0.06172839506172839,35.617283950617285,0)" xlink:href="#j"/><use transform="matrix(0.06172839506172839,0,0,0.06172839506172839,47.96296296296296,0)" xlink:href="#u"/><use transform="matrix(0.06172839506172839,0,0,0.06172839506172839,63.95061728395061,0)" xlink:href="#q"/><use transform="matrix(0.06172839506172839,0,0,0.06172839506172839,68.82716049382715,0)" xlink:href="#h"/><use transform="matrix(0.06172839506172839,0,0,0.06172839506172839,81.17283950617283,0)" xlink:href="#r"/></g><path fill="#333" d="M212-179c-10-28-35-45-73-45-59 0-87 40-87 99 0 60 29 101 89 101 43 0 62-24 78-52l27 14C228-24 195 4 139 4 59 4 22-46 18-125c-6-104 99-153 187-111 19 9 31 26 39 46" id="v"/><path fill="#333" d="M59-47c-2 24 18 29 38 22v24C64 9 27 4 27-40v-127H5v-23h24l9-43h21v43h35v23H59v120" id="w"/><g id="d"><use transform="matrix(0.06172839506172839,0,0,0.06172839506172839,0,0)" xlink:href="#v"/><use transform="matrix(0.06172839506172839,0,0,0.06172839506172839,15.987654320987653,0)" xlink:href="#k"/><use transform="matrix(0.06172839506172839,0,0,0.06172839506172839,28.333333333333332,0)" xlink:href="#o"/><use transform="matrix(0.06172839506172839,0,0,0.06172839506172839,35.67901234567901,0)" xlink:href="#o"/><use transform="matrix(0.06172839506172839,0,0,0.06172839506172839,43.02469135802469,0)" xlink:href="#m"/><use transform="matrix(0.06172839506172839,0,0,0.06172839506172839,55.37037037037037,0)" xlink:href="#h"/><use transform="matrix(0.06172839506172839,0,0,0.06172839506172839,67.71604938271605,0)" xlink:href="#w"/></g><path fill="#333" d="M233-177c-1 41-23 64-60 70L243 0h-38l-65-103H63V0H30v-248c88 3 205-21 203 71zM63-129c60-2 137 13 137-47 0-61-80-42-137-45v92" id="x"/><g id="e"><use transform="matrix(0.06172839506172839,0,0,0.06172839506172839,0,0)" xlink:href="#x"/><use transform="matrix(0.06172839506172839,0,0,0.06172839506172839,15.987654320987653,0)" xlink:href="#j"/><use transform="matrix(0.06172839506172839,0,0,0.06172839506172839,28.333333333333332,0)" xlink:href="#u"/></g><path fill="#333" d="M141-36C126-15 110 5 73 4 37 3 15-17 15-53c-1-64 63-63 125-63 3-35-9-54-41-54-24 1-41 7-42 31l-33-3c5-37 33-52 76-52 45 0 72 20 72 64v82c-1 20 7 32 28 27v20c-31 9-61-2-59-35zM48-53c0 20 12 33 32 33 41-3 63-29 60-74-43 2-92-5-92 41" id="y"/><g id="f"><use transform="matrix(0.06172839506172839,0,0,0.06172839506172839,0,0)" xlink:href="#n"/><use transform="matrix(0.06172839506172839,0,0,0.06172839506172839,14.814814814814813,0)" xlink:href="#y"/><use transform="matrix(0.06172839506172839,0,0,0.06172839506172839,27.160493827160494,0)" xlink:href="#o"/><use transform="matrix(0.06172839506172839,0,0,0.06172839506172839,34.50617283950617,0)" xlink:href="#w"/><use transform="matrix(0.06172839506172839,0,0,0.06172839506172839,40.67901234567901,0)" xlink:href="#q"/><use transform="matrix(0.06172839506172839,0,0,0.06172839506172839,45.55555555555556,0)" xlink:href="#w"/><use transform="matrix(0.06172839506172839,0,0,0.06172839506172839,51.7283950617284,0)" xlink:href="#q"/><use transform="matrix(0.06172839506172839,0,0,0.06172839506172839,56.604938271604944,0)" xlink:href="#j"/><use transform="matrix(0.06172839506172839,0,0,0.06172839506172839,68.95061728395062,0)" xlink:href="#h"/></g></defs></g></svg>